<?xml version="1.0" encoding="UTF-8"?>
<svg xmlns="http://www.w3.org/2000/svg" xmlns:xlink="http://www.w3.org/1999/xlink" viewBox="0 0 660.57 200.81">
  <defs>
    <style>
      .cls-1 {
        fill: #2c0070;
      }

      .cls-1, .cls-2, .cls-3, .cls-4, .cls-5, .cls-6, .cls-7, .cls-8, .cls-9, .cls-10, .cls-11, .cls-12, .cls-13, .cls-14, .cls-15, .cls-16, .cls-17, .cls-18, .cls-19, .cls-20, .cls-21, .cls-22, .cls-23, .cls-24, .cls-25, .cls-26, .cls-27, .cls-28, .cls-29, .cls-30, .cls-31, .cls-32, .cls-33, .cls-34, .cls-35 {
        stroke-width: 0px;
      }

      .cls-2 {
        fill: url(#linear-gradient-12);
      }

      .cls-3 {
        fill: url(#linear-gradient-19);
      }

      .cls-4 {
        fill: #eeeff5;
      }

      .cls-5 {
        fill: url(#linear-gradient);
      }

      .cls-6 {
        fill: url(#linear-gradient-6);
      }

      .cls-36 {
        isolation: isolate;
      }

      .cls-37 {
        fill: #684bc2;
        font-family: BebasNeue, 'Bebas Neue';
        font-size: 195.15px;
      }

      .cls-7 {
        fill: url(#linear-gradient-15);
      }

      .cls-8 {
        fill: url(#linear-gradient-11);
      }

      .cls-9 {
        fill: url(#linear-gradient-5);
      }

      .cls-10 {
        fill: url(#linear-gradient-20);
      }

      .cls-10, .cls-11, .cls-32, .cls-35 {
        mix-blend-mode: screen;
      }

      .cls-11 {
        fill: url(#linear-gradient-16);
      }

      .cls-12 {
        fill: url(#linear-gradient-13);
      }

      .cls-13 {
        fill: url(#linear-gradient-23);
      }

      .cls-14 {
        fill: url(#linear-gradient-25);
      }

      .cls-15 {
        fill: url(#linear-gradient-22);
      }

      .cls-16 {
        fill: url(#linear-gradient-14);
      }

      .cls-17 {
        fill: url(#linear-gradient-2);
      }

      .cls-18 {
        fill: url(#linear-gradient-7);
      }

      .cls-19 {
        fill: url(#radial-gradient-2);
      }

      .cls-20 {
        fill: url(#linear-gradient-3);
      }

      .cls-21 {
        fill: url(#radial-gradient-5);
      }

      .cls-22 {
        fill: url(#linear-gradient-9);
      }

      .cls-23 {
        fill: url(#linear-gradient-27);
      }

      .cls-24 {
        fill: url(#radial-gradient);
      }

      .cls-25 {
        fill: url(#linear-gradient-8);
      }

      .cls-26 {
        fill: url(#linear-gradient-24);
      }

      .cls-27 {
        fill: url(#linear-gradient-26);
      }

      .cls-28 {
        fill: url(#linear-gradient-18);
      }

      .cls-29 {
        fill: url(#linear-gradient-28);
      }

      .cls-30 {
        fill: url(#linear-gradient-10);
      }

      .cls-31 {
        fill: url(#radial-gradient-3);
      }

      .cls-32 {
        fill: url(#linear-gradient-17);
      }

      .cls-33 {
        fill: url(#linear-gradient-4);
      }

      .cls-34 {
        fill: url(#radial-gradient-4);
      }

      .cls-35 {
        fill: url(#linear-gradient-21);
      }
    </style>
    <linearGradient id="linear-gradient" x1="30.48" y1="20.44" x2="128.35" y2="195.34" gradientUnits="userSpaceOnUse">
      <stop offset="0" stop-color="#dcdae3"/>
      <stop offset="1" stop-color="#938bb3"/>
    </linearGradient>
    <linearGradient id="linear-gradient-2" x1="41.17" y1="172.47" x2="41.17" y2="73.51" gradientUnits="userSpaceOnUse">
      <stop offset="0" stop-color="#fbd15b"/>
      <stop offset="1" stop-color="#db840a"/>
    </linearGradient>
    <linearGradient id="linear-gradient-3" x1="112.73" y1="19.76" x2="112.73" y2="110.99" gradientUnits="userSpaceOnUse">
      <stop offset="0" stop-color="#684bc2"/>
      <stop offset="1" stop-color="#2c0070"/>
    </linearGradient>
    <linearGradient id="linear-gradient-4" x1="-1474.96" y1="19.76" x2="-1474.96" y2="110.99" gradientTransform="translate(-1437.51) rotate(-180) scale(1 -1)" xlink:href="#linear-gradient-3"/>
    <linearGradient id="linear-gradient-5" x1="109.02" y1="173.4" x2="109.02" y2="76.86" xlink:href="#linear-gradient-2"/>
    <linearGradient id="linear-gradient-6" x1="36.3" y1="158.3" x2="120.91" y2="68.59" xlink:href="#linear-gradient-2"/>
    <linearGradient id="linear-gradient-7" x1="-1600.71" y1="158.3" x2="-1516.09" y2="68.59" gradientTransform="translate(-1486.82) rotate(-180) scale(1 -1)" xlink:href="#linear-gradient-2"/>
    <linearGradient id="linear-gradient-8" x1="103.7" y1="82.55" x2="103.7" y2="152.78" xlink:href="#linear-gradient-3"/>
    <linearGradient id="linear-gradient-9" x1="46.49" y1="82.55" x2="46.49" y2="152.78" xlink:href="#linear-gradient-3"/>
    <linearGradient id="linear-gradient-10" x1="75.1" y1="106.49" x2="75.1" y2="178.77" xlink:href="#linear-gradient-3"/>
    <linearGradient id="linear-gradient-11" x1="75.1" y1="111.47" x2="75.1" y2="34.29" xlink:href="#linear-gradient-2"/>
    <linearGradient id="linear-gradient-12" x1="75.1" y1="87.01" x2="75.1" y2="29.63" xlink:href="#linear-gradient-2"/>
    <linearGradient id="linear-gradient-13" x1="75.09" y1="62.47" x2="75.09" y2="-12.54" xlink:href="#linear-gradient-3"/>
    <radialGradient id="radial-gradient" cx="74.88" cy="52.57" fx="74.88" fy="52.57" r="60.05" gradientTransform="translate(0 -14.56) scale(1 1.53)" gradientUnits="userSpaceOnUse">
      <stop offset="0" stop-color="#eeeff5"/>
      <stop offset="1" stop-color="#b2aec1"/>
    </radialGradient>
    <radialGradient id="radial-gradient-2" cx="76.5" cy="113.27" fx="76.5" fy="113.27" r="82.3" gradientTransform="matrix(1,0,0,1,0,0)" xlink:href="#radial-gradient"/>
    <radialGradient id="radial-gradient-3" cx="75.23" cy="97.57" fx="75.23" fy="97.57" r="26" gradientUnits="userSpaceOnUse">
      <stop offset="0" stop-color="#684bc2"/>
      <stop offset="1" stop-color="#2c0070"/>
    </radialGradient>
    <linearGradient id="linear-gradient-14" x1="-7735.79" y1="-8518.29" x2="-7735.79" y2="-8579.78" gradientTransform="translate(9516.85 6820.35) rotate(-12.47)" xlink:href="#linear-gradient-2"/>
    <linearGradient id="linear-gradient-15" x1="-7735.79" y1="-8589.99" x2="-7735.79" y2="-8602.57" gradientTransform="translate(9516.85 6820.35) rotate(-12.47)" gradientUnits="userSpaceOnUse">
      <stop offset="0" stop-color="#eeeff5"/>
      <stop offset="1" stop-color="#b2aec1"/>
    </linearGradient>
    <radialGradient id="radial-gradient-4" cx="-7735.79" cy="-8590.55" fx="-7735.79" fy="-8590.55" r="14.35" gradientTransform="translate(-550.52 11643.89) rotate(45.24)" xlink:href="#radial-gradient-3"/>
    <linearGradient id="linear-gradient-16" x1="-7735.79" y1="-8595.96" x2="-7735.79" y2="-8602.7" gradientTransform="translate(9516.85 6820.35) rotate(-12.47)" gradientUnits="userSpaceOnUse">
      <stop offset="0" stop-color="#000"/>
      <stop offset="1" stop-color="#58595b"/>
    </linearGradient>
    <linearGradient id="linear-gradient-17" x1="-7735.79" y1="-8598.38" x2="-7735.79" y2="-8604.49" xlink:href="#linear-gradient-16"/>
    <linearGradient id="linear-gradient-18" x1="-8869.42" y1="-8769.07" x2="-8869.42" y2="-8830.56" gradientTransform="translate(-10527.7 6820.35) rotate(-167.53) scale(1 -1)" xlink:href="#linear-gradient-2"/>
    <linearGradient id="linear-gradient-19" x1="-8869.42" y1="-8840.77" x2="-8869.42" y2="-8853.35" gradientTransform="translate(-10527.7 6820.35) rotate(-167.53) scale(1 -1)" xlink:href="#linear-gradient-15"/>
    <radialGradient id="radial-gradient-5" cx="-8869.42" cy="-8841.33" fx="-8869.42" fy="-8841.33" r="14.35" gradientTransform="translate(-10527.7 6820.35) rotate(-167.53) scale(1 -1)" xlink:href="#radial-gradient-3"/>
    <linearGradient id="linear-gradient-20" x1="-8869.42" y1="-8846.74" x2="-8869.42" y2="-8853.48" gradientTransform="translate(-10527.7 6820.35) rotate(-167.53) scale(1 -1)" xlink:href="#linear-gradient-16"/>
    <linearGradient id="linear-gradient-21" x1="-8869.42" y1="-8849.16" x2="-8869.42" y2="-8855.27" gradientTransform="translate(-10527.7 6820.35) rotate(-167.53) scale(1 -1)" xlink:href="#linear-gradient-16"/>
    <linearGradient id="linear-gradient-22" x1="315.71" y1="-67.81" x2="492.56" y2="238.49" xlink:href="#linear-gradient-3"/>
    <linearGradient id="linear-gradient-23" x1="315.71" y1="-67.81" x2="492.56" y2="238.49" xlink:href="#linear-gradient-3"/>
    <linearGradient id="linear-gradient-24" x1="315.71" y1="-67.81" x2="492.56" y2="238.49" xlink:href="#linear-gradient-3"/>
    <linearGradient id="linear-gradient-25" x1="315.71" y1="-67.81" x2="492.56" y2="238.49" xlink:href="#linear-gradient-3"/>
    <linearGradient id="linear-gradient-26" x1="315.71" y1="-67.81" x2="492.56" y2="238.49" xlink:href="#linear-gradient-3"/>
    <linearGradient id="linear-gradient-27" x1="315.71" y1="-67.81" x2="492.56" y2="238.49" xlink:href="#linear-gradient-3"/>
    <linearGradient id="linear-gradient-28" x1="315.71" y1="-67.81" x2="492.56" y2="238.49" xlink:href="#linear-gradient-3"/>
  </defs>
  <g class="cls-36">
    <g id="Camada_2" data-name="Camada 2">
      <g id="TEXTS">
        <g>
          <g>
            <rect class="cls-5" y="25.07" width="150.19" height="150.19" rx="8.54" ry="8.54"/>
            <g>
              <path class="cls-17" d="M75.09,34.3h0c-36,0-51.81,25.6-65.19,65.19-4.33,12.81-8.83,37.03,33.78,60.36,13.02,7.12,31.4,18.92,31.4,18.92V34.3Z"/>
              <path class="cls-20" d="M130.95,23.82c-8.14,8.09-28.06,25.43-44.08,19.34l44.37,44.37s12.1-37.13,5.26-62.28c-.66-2.45-3.75-3.22-5.55-1.43Z"/>
              <path class="cls-4" d="M95.12,51.41l26.84,26.84c4.12-10.74,9.15-27.34,9.01-43.96,0,0-14.2,14.7-35.85,17.12Z"/>
              <path class="cls-33" d="M13.69,25.26c-6.84,25.15,5.26,62.28,5.26,62.28l44.37-44.37c-16.02,6.08-35.95-11.26-44.08-19.34-1.8-1.79-4.88-1.01-5.55,1.43Z"/>
              <path class="cls-4" d="M55.07,51.41l-26.84,26.84c-4.12-10.74-9.15-27.34-9.01-43.96,0,0,14.2,14.7,35.85,17.12Z"/>
              <path class="cls-9" d="M75.09,34.3h0c36,0,51.81,25.6,65.19,65.19,4.33,12.81,8.83,37.03-33.78,60.36-13.02,7.12-31.4,18.92-31.4,18.92V34.3Z"/>
              <path class="cls-6" d="M140.28,99.48c-13.38-39.59-29.19-65.19-65.19-65.19v8.26s0,63.93,0,63.93c.16-.73,8.46-37.4,30.93-27.2,5.76,2.62,33.82,14.95,29.98,56.16,9.95-14.55,7.08-27.66,4.27-35.97Z"/>
              <path class="cls-18" d="M9.9,99.48c13.38-39.59,29.19-65.19,65.19-65.19v8.26s0,63.93,0,63.93c-.16-.73-8.46-37.4-30.93-27.2-5.76,2.62-33.82,14.95-29.98,56.16-9.95-14.55-7.08-27.66-4.27-35.97Z"/>
              <path class="cls-25" d="M75.09,178.76s18.39-11.8,31.4-18.92c7.21-3.95,13.08-7.92,17.82-11.86,10.95-9.09,11.66-32.49-4.33-42.04-27.21-16.25-44.89,15.09-44.9,15.1v57.72Z"/>
              <path class="cls-22" d="M75.09,178.76s-18.39-11.8-31.4-18.92c-7.21-3.95-13.08-7.92-17.82-11.86-10.95-9.09-11.66-32.49,4.33-42.04,27.21-16.25,44.89,15.09,44.9,15.1v57.72Z"/>
              <path class="cls-30" d="M118.43,137.2c1.01,9.19-3.71,18.11-11.81,22.58-.04.02-.08.05-.13.07-13.02,7.12-31.41,18.92-31.41,18.92,0,0-18.37-11.8-31.39-18.92-.04-.02-.08-.05-.13-.07-8.09-4.46-12.82-13.39-11.81-22.58,3.62-32.88,43.32-30.68,43.32-30.68.02,0,39.72-2.2,43.34,30.68Z"/>
              <path class="cls-8" d="M135.99,87.54c-54.41-26.49-49.19,18.94-49.19,18.94l-11.71,4.99-11.69-4.99s5.22-45.43-49.19-18.94c2.71-7.02,5.58-13.49,8.73-19.32,11.52-21.27,26.85-33.93,52.15-33.93s40.65,12.66,52.17,33.93c3.15,5.83,6.02,12.3,8.73,19.32Z"/>
              <path class="cls-2" d="M75.09,34.29c-20.44,0-34.37,8.27-45.05,22.67,31.77,4.33,41.17,27.38,43.92,39.4.28,1.2,1.97,1.2,2.25,0,2.75-12.03,12.15-35.08,43.94-39.41-10.67-14.39-24.61-22.67-45.06-22.67Z"/>
              <path class="cls-12" d="M104.73,42.24c-15.66,4.74-23.14,16.27-26.65,25.02-1.08,2.7-4.89,2.7-5.98,0-3.51-8.75-11-20.28-26.66-25.01l.72-.44c7.97-4.86,17.4-7.52,28.92-7.52s20.97,2.66,28.94,7.52l.71.44Z"/>
              <g>
                <ellipse class="cls-24" cx="75.09" cy="138.74" rx="14.07" ry="10.99"/>
                <path class="cls-19" d="M101.73,138.1c-5.88,6.21-17.17,5.08-25.21-2.53-.5-.48-.98-.97-1.42-1.46-.45.5-.93.99-1.42,1.46-8.04,7.61-19.32,8.74-25.21,2.53-5.88-6.21-4.14-17.42,3.9-25.03,5.27-4.98,11.93-7.19,17.55-6.37,3.43.5,6.94.5,10.37,0,5.62-.82,12.28,1.38,17.55,6.37,8.04,7.61,9.79,18.82,3.9,25.03Z"/>
                <path class="cls-31" d="M75.09,121.04c3.6,0,9.66-7.48,12.42-11.15.84-1.12.51-2.74-.72-3.42-2.24-1.23-6.18-2.81-11.7-2.81s-9.47,1.58-11.7,2.81c-1.23.68-1.56,2.29-.72,3.42,2.76,3.67,8.82,11.15,12.42,11.15Z"/>
              </g>
              <g>
                <g>
                  <path class="cls-4" d="M90.65,125.17c2.16-1.66,4.56-3.06,6.97-4.29,4.91-2.51,10.35-4.35,15.93-4.2.64.02.64-.98,0-1-5.55-.15-10.96,1.62-15.88,4.06-2.61,1.3-5.21,2.79-7.52,4.57-.5.39,0,1.26.5.86h0Z"/>
                  <path class="cls-4" d="M91.97,128.08c2.42-1.25,5.04-2.19,7.65-2.96,5.24-1.56,10.87-2.39,16.28-1.26.63.13.9-.83.27-.96-5.48-1.15-11.17-.38-16.5,1.16-2.79.81-5.6,1.82-8.2,3.15-.57.29-.07,1.16.5.86h0Z"/>
                  <path class="cls-4" d="M92.79,130.94c2.7-.34,5.48-.34,8.2-.18,5.5.31,11.13,1.48,15.86,4.42.55.34,1.05-.52.5-.86-4.71-2.93-10.29-4.14-15.77-4.52-2.91-.2-5.89-.22-8.79.15-.63.08-.64,1.08,0,1h0Z"/>
                </g>
                <g>
                  <path class="cls-4" d="M60.04,124.3c-2.32-1.78-4.91-3.27-7.52-4.57-4.92-2.44-10.34-4.2-15.88-4.06-.64.02-.64,1.02,0,1,5.57-.15,11.02,1.69,15.93,4.2,2.42,1.24,4.82,2.63,6.97,4.29.51.39,1.01-.48.5-.86h0Z"/>
                  <path class="cls-4" d="M58.72,127.21c-2.59-1.33-5.4-2.34-8.2-3.15-5.33-1.55-11.02-2.31-16.5-1.16-.63.13-.36,1.1.27.96,5.41-1.13,11.04-.31,16.28,1.26,2.61.78,5.23,1.72,7.65,2.96.57.29,1.08-.57.5-.86h0Z"/>
                  <path class="cls-4" d="M57.4,129.94c-2.9-.37-5.88-.34-8.79-.15-5.48.38-11.05,1.59-15.77,4.52-.55.34-.04,1.2.5.86,4.73-2.94,10.35-4.1,15.86-4.42,2.71-.15,5.49-.16,8.2.18.64.08.63-.92,0-1h0Z"/>
                </g>
              </g>
              <g>
                <g>
                  <path class="cls-16" d="M108.98,107.6c-8.83,1.95-16.96-.71-18.11-5.94-1.16-5.23,5.09-11.08,13.92-13.03,8.83-1.95,16.96.71,18.11,5.94,1.16,5.23-5.09,11.08-13.92,13.03Z"/>
                  <path class="cls-7" d="M120.94,95c1.02,4.6-4.45,9.72-12.22,11.44-7.77,1.72-14.89-.62-15.91-5.22-1.02-4.6,4.45-9.72,12.22-11.44,7.77-1.72,14.89.62,15.91,5.22Z"/>
                  <circle class="cls-34" cx="106.92" cy="98.33" r="8.23" transform="translate(-33.31 136.21) rotate(-57.72)"/>
                  <path class="cls-1" d="M109.01,97.87c.66,2.98.26,5.61-.89,5.86-1.15.26-2.62-1.96-3.28-4.94-.66-2.98-.26-5.61.89-5.86,1.15-.26,2.62,1.96,3.28,4.94Z"/>
                  <path class="cls-11" d="M105.11,90.13c-5.05,1.12-9.09,3.74-10.86,6.69,2.85,1.92,7.62,2.6,12.67,1.48,5.05-1.12,9.09-3.74,10.86-6.69-2.85-1.92-7.62-2.6-12.67-1.48Z"/>
                  <path class="cls-32" d="M108.59,92.68c.34,1.54-.63,3.06-2.17,3.4-1.54.34-3.06-.63-3.4-2.17s.63-3.06,2.17-3.4c1.54-.34,3.06.63,3.4,2.17Z"/>
                </g>
                <g>
                  <path class="cls-28" d="M41.21,107.6c8.83,1.95,16.96-.71,18.11-5.94s-5.09-11.08-13.92-13.03-16.96.71-18.11,5.94c-1.16,5.23,5.09,11.08,13.92,13.03Z"/>
                  <path class="cls-3" d="M29.25,95c-1.02,4.6,4.45,9.72,12.22,11.44,7.77,1.72,14.89-.62,15.91-5.22,1.02-4.6-4.45-9.72-12.22-11.44-7.77-1.72-14.89.62-15.91,5.22Z"/>
                  <path class="cls-21" d="M35.23,96.55c-.98,4.44,1.82,8.83,6.25,9.81,4.44.98,8.83-1.82,9.81-6.25.98-4.44-1.82-8.83-6.25-9.81-4.44-.98-8.83,1.82-9.81,6.25Z"/>
                  <path class="cls-1" d="M41.18,97.87c-.66,2.98-.26,5.61.89,5.86,1.15.26,2.62-1.96,3.28-4.94.66-2.98.26-5.61-.89-5.86-1.15-.26-2.62,1.96-3.28,4.94Z"/>
                  <path class="cls-10" d="M45.08,90.13c5.05,1.12,9.09,3.74,10.86,6.69-2.85,1.92-7.62,2.6-12.67,1.48-5.05-1.12-9.09-3.74-10.86-6.69,2.85-1.92,7.62-2.6,12.67-1.48Z"/>
                  <path class="cls-35" d="M41.6,92.68c-.34,1.54.63,3.06,2.17,3.4s3.06-.63,3.4-2.17c.34-1.54-.63-3.06-2.17-3.4s-3.06.63-3.4,2.17Z"/>
                </g>
              </g>
            </g>
          </g>
          <g>
            <text class="cls-37" transform="translate(172.49 165.88)"><tspan x="0" y="0">ICOCLUB</tspan></text>
            <g>
              <path class="cls-15" d="M180.3,29.27h21.47v136.61h-21.47V29.27Z"/>
              <path class="cls-13" d="M279.63,114.94v18.15c0,21.86-10.93,34.35-32.01,34.35s-32.01-12.49-32.01-34.35V62.05c0-21.86,10.93-34.35,32.01-34.35s32.01,12.49,32.01,34.35v13.27h-20.3v-14.64c0-9.76-4.29-13.47-11.12-13.47s-11.12,3.71-11.12,13.47v73.77c0,9.76,4.29,13.27,11.12,13.27s11.12-3.51,11.12-13.27v-19.52h20.3Z"/>
              <path class="cls-26" d="M290.95,62.05c0-21.86,11.51-34.35,32.59-34.35s32.59,12.49,32.59,34.35v71.04c0,21.86-11.51,34.35-32.59,34.35s-32.59-12.49-32.59-34.35V62.05ZM312.42,134.46c0,9.76,4.29,13.47,11.12,13.47s11.12-3.71,11.12-13.47V60.69c0-9.76-4.29-13.47-11.12-13.47s-11.12,3.71-11.12,13.47v73.77Z"/>
              <path class="cls-14" d="M432.24,114.94v18.15c0,21.86-10.93,34.35-32.01,34.35s-32.01-12.49-32.01-34.35V62.05c0-21.86,10.93-34.35,32.01-34.35s32.01,12.49,32.01,34.35v13.27h-20.3v-14.64c0-9.76-4.29-13.47-11.12-13.47s-11.12,3.71-11.12,13.47v73.77c0,9.76,4.29,13.27,11.12,13.27s11.12-3.51,11.12-13.27v-19.52h20.3Z"/>
              <path class="cls-27" d="M445.32,29.27h21.47v117.1h35.32v19.52h-56.79V29.27Z"/>
              <path class="cls-23" d="M531.96,29.27v105.39c0,9.76,4.29,13.27,11.12,13.27s11.12-3.51,11.12-13.27V29.27h20.3v104.02c0,21.86-10.93,34.35-32.01,34.35s-32.01-12.49-32.01-34.35V29.27h21.47Z"/>
              <path class="cls-29" d="M653.35,60.69v4.88c0,14.05-4.29,22.83-13.86,27.32v.39c11.51,4.49,16,14.64,16,29.08v11.12c0,21.08-11.12,32.4-32.59,32.4h-33.76V29.27h32.4c22.25,0,31.81,10.34,31.81,31.42ZM610.61,48.78v36.1h8.39c8,0,12.88-3.51,12.88-14.44v-7.61c0-9.76-3.32-14.05-10.93-14.05h-10.34ZM610.61,104.4v41.96h12.29c7.22,0,11.12-3.32,11.12-13.47v-11.9c0-12.69-4.1-16.59-13.86-16.59h-9.56Z"/>
            </g>
          </g>
        </g>
      </g>
    </g>
  </g>
</svg>